<svg xmlns="http://www.w3.org/2000/svg" xmlns:xlink="http://www.w3.org/1999/xlink" width="400" zoomAndPan="magnify" viewBox="0 0 300 74.999997" height="100" preserveAspectRatio="xMidYMid meet" version="1.0"><defs><g/></defs><g fill="#404654" fill-opacity="1"><g transform="translate(9.132087, 62.82184)"><g><path d="M 26.71875 0.890625 C 24.21875 0.890625 22.003906 0.316406 20.078125 -0.828125 C 18.160156 -1.972656 16.78125 -3.71875 15.9375 -6.0625 L 0 -52.375 L 13.546875 -52.375 L 25.671875 -11.828125 C 25.765625 -11.523438 25.898438 -11.296875 26.078125 -11.140625 C 26.253906 -10.992188 26.46875 -10.921875 26.71875 -10.921875 C 26.96875 -10.921875 27.175781 -10.984375 27.34375 -11.109375 C 27.519531 -11.234375 27.660156 -11.472656 27.765625 -11.828125 L 40.109375 -52.375 L 53.359375 -52.375 L 37.484375 -6.0625 C 36.691406 -3.8125 35.320312 -2.085938 33.375 -0.890625 C 31.425781 0.296875 29.207031 0.890625 26.71875 0.890625 Z M 26.71875 0.890625 "/></g></g></g><g fill="#404654" fill-opacity="1"><g transform="translate(56.344878, 62.82184)"><g><path d="M 3.21875 0 L 16.90625 -22.515625 C 14.46875 -23.515625 12.375 -24.847656 10.625 -26.515625 C 8.875 -28.191406 7.515625 -30.203125 6.546875 -32.546875 C 5.578125 -34.890625 5.09375 -37.535156 5.09375 -40.484375 L 5.09375 -52.375 L 17.65625 -52.375 L 17.65625 -39.734375 C 17.65625 -38.429688 17.914062 -37.21875 18.4375 -36.09375 C 18.96875 -34.976562 19.71875 -34.054688 20.6875 -33.328125 C 21.664062 -32.609375 22.800781 -32.148438 24.09375 -31.953125 L 36.21875 -52.375 L 50.203125 -52.375 L 36.515625 -30.3125 C 39.253906 -29.507812 41.644531 -28.257812 43.6875 -26.5625 C 45.738281 -24.863281 47.3125 -22.78125 48.40625 -20.3125 C 49.507812 -17.84375 50.0625 -15.0625 50.0625 -11.96875 L 50.0625 0 L 37.484375 0 L 37.484375 -12.578125 C 37.484375 -14.816406 36.785156 -16.722656 35.390625 -18.296875 C 33.992188 -19.867188 32.050781 -20.679688 29.5625 -20.734375 L 17.203125 0 Z M 3.21875 0 "/></g></g></g><g fill="#404654" fill-opacity="1"><g transform="translate(102.959075, 62.82184)"><g><path d="M 4.5625 0 L 4.5625 -52.375 L 17.140625 -52.375 L 17.140625 -31.796875 L 37.5625 -31.796875 L 37.5625 -52.375 L 50.140625 -52.375 L 50.140625 0 L 37.5625 0 L 37.5625 -21.328125 L 17.140625 -21.328125 L 17.140625 0 Z M 4.5625 0 "/></g></g></g><g fill="#404654" fill-opacity="1"><g transform="translate(151.518698, 62.82184)"><g><path d="M 18.5625 0 C 15.613281 0 12.941406 -0.679688 10.546875 -2.046875 C 8.148438 -3.421875 6.238281 -5.269531 4.8125 -7.59375 C 3.394531 -9.914062 2.6875 -12.546875 2.6875 -15.484375 C 2.6875 -17.679688 3.171875 -19.738281 4.140625 -21.65625 C 5.117188 -23.582031 6.429688 -25.242188 8.078125 -26.640625 C 6.484375 -27.984375 5.222656 -29.578125 4.296875 -31.421875 C 3.378906 -33.273438 2.921875 -35.222656 2.921875 -37.265625 C 2.921875 -40.160156 3.617188 -42.738281 5.015625 -45 C 6.410156 -47.269531 8.28125 -49.066406 10.625 -50.390625 C 12.96875 -51.710938 15.5625 -52.375 18.40625 -52.375 L 40.484375 -52.375 L 40.484375 -41.90625 L 20.359375 -41.90625 C 19.410156 -41.90625 18.535156 -41.679688 17.734375 -41.234375 C 16.929688 -40.785156 16.289062 -40.1875 15.8125 -39.4375 C 15.34375 -38.6875 15.109375 -37.8125 15.109375 -36.8125 C 15.109375 -35.863281 15.34375 -35.003906 15.8125 -34.234375 C 16.289062 -33.460938 16.929688 -32.863281 17.734375 -32.4375 C 18.535156 -32.007812 19.410156 -31.796875 20.359375 -31.796875 L 37.9375 -31.796875 L 37.9375 -21.328125 L 20.734375 -21.328125 C 19.679688 -21.328125 18.726562 -21.078125 17.875 -20.578125 C 17.03125 -20.078125 16.359375 -19.425781 15.859375 -18.625 C 15.359375 -17.832031 15.109375 -16.910156 15.109375 -15.859375 C 15.109375 -14.859375 15.359375 -13.945312 15.859375 -13.125 C 16.359375 -12.300781 17.03125 -11.664062 17.875 -11.21875 C 18.726562 -10.769531 19.679688 -10.546875 20.734375 -10.546875 L 40.484375 -10.546875 L 40.484375 0 Z M 18.5625 0 "/></g></g></g><g fill="#404654" fill-opacity="1"><g transform="translate(188.77988, 62.82184)"><g><path d="M 4.5625 0 L 4.5625 -52.375 L 28.515625 -52.375 C 32.054688 -52.375 35.285156 -51.597656 38.203125 -50.046875 C 41.117188 -48.503906 43.4375 -46.363281 45.15625 -43.625 C 46.875 -40.882812 47.734375 -37.71875 47.734375 -34.125 C 47.734375 -30.78125 46.9375 -27.769531 45.34375 -25.09375 C 43.75 -22.425781 41.65625 -20.269531 39.0625 -18.625 L 43.25 -11.53125 C 43.5 -11.175781 43.785156 -10.898438 44.109375 -10.703125 C 44.429688 -10.503906 44.867188 -10.40625 45.421875 -10.40625 L 50.0625 -10.40625 L 50.0625 0 L 42.734375 0 C 40.484375 0 38.4375 -0.535156 36.59375 -1.609375 C 34.75 -2.679688 33.300781 -4.09375 32.25 -5.84375 L 26.640625 -15.78125 C 26.285156 -15.78125 25.921875 -15.78125 25.546875 -15.78125 C 25.179688 -15.78125 24.796875 -15.78125 24.390625 -15.78125 L 17.140625 -15.78125 L 17.140625 0 Z M 17.140625 -26.1875 L 27.09375 -26.1875 C 28.53125 -26.1875 29.875 -26.5 31.125 -27.125 C 32.375 -27.75 33.359375 -28.644531 34.078125 -29.8125 C 34.804688 -30.988281 35.171875 -32.398438 35.171875 -34.046875 C 35.171875 -35.691406 34.796875 -37.097656 34.046875 -38.265625 C 33.296875 -39.441406 32.304688 -40.34375 31.078125 -40.96875 C 29.859375 -41.59375 28.53125 -41.90625 27.09375 -41.90625 L 17.140625 -41.90625 Z M 17.140625 -26.1875 "/></g></g></g><g fill="#404654" fill-opacity="1"><g transform="translate(233.822758, 62.82184)"><g><path d="M 41.453125 0.890625 C 38.304688 0.890625 35.484375 0.207031 32.984375 -1.15625 C 30.492188 -2.53125 28.523438 -4.4375 27.078125 -6.875 C 25.640625 -9.320312 24.921875 -12.09375 24.921875 -15.1875 L 24.921875 -38.09375 C 24.921875 -38.882812 24.71875 -39.601562 24.3125 -40.25 C 23.914062 -40.90625 23.394531 -41.429688 22.75 -41.828125 C 22.101562 -42.222656 21.378906 -42.421875 20.578125 -42.421875 C 19.773438 -42.421875 19.050781 -42.222656 18.40625 -41.828125 C 17.757812 -41.429688 17.25 -40.90625 16.875 -40.25 C 16.5 -39.601562 16.3125 -38.882812 16.3125 -38.09375 L 16.3125 0 L 4.046875 0 L 4.046875 -37.1875 C 4.046875 -40.332031 4.753906 -43.101562 6.171875 -45.5 C 7.597656 -47.894531 9.566406 -49.789062 12.078125 -51.1875 C 14.597656 -52.582031 17.429688 -53.28125 20.578125 -53.28125 C 23.765625 -53.28125 26.601562 -52.582031 29.09375 -51.1875 C 31.59375 -49.789062 33.566406 -47.894531 35.015625 -45.5 C 36.460938 -43.101562 37.1875 -40.332031 37.1875 -37.1875 L 37.1875 -14.296875 C 37.1875 -13.492188 37.382812 -12.753906 37.78125 -12.078125 C 38.1875 -11.410156 38.695312 -10.890625 39.3125 -10.515625 C 39.9375 -10.140625 40.625 -9.953125 41.375 -9.953125 C 42.175781 -9.953125 42.910156 -10.140625 43.578125 -10.515625 C 44.253906 -10.890625 44.789062 -11.410156 45.1875 -12.078125 C 45.59375 -12.753906 45.796875 -13.492188 45.796875 -14.296875 L 45.796875 -52.375 L 57.984375 -52.375 L 57.984375 -15.1875 C 57.984375 -12.09375 57.257812 -9.320312 55.8125 -6.875 C 54.375 -4.4375 52.40625 -2.53125 49.90625 -1.15625 C 47.414062 0.207031 44.597656 0.890625 41.453125 0.890625 Z M 41.453125 0.890625 "/></g></g></g></svg>